<?xml version="1.0" standalone="no"?>
<!DOCTYPE svg PUBLIC "-//W3C//DTD SVG 20010904//EN"
 "http://www.w3.org/TR/2001/REC-SVG-20010904/DTD/svg10.dtd">
<svg version="1.0" xmlns="http://www.w3.org/2000/svg"
 width="24.000000pt" height="24.000000pt" viewBox="0 0 24.000000 24.000000"
 preserveAspectRatio="xMidYMid meet">

<g transform="translate(0.000000,24.000000) scale(0.100000,-0.100000)"
fill="#000000" stroke="none">
<path d="M0 115 l0 -105 93 0 c113 0 127 9 127 87 0 39 -5 54 -23 71 -29 27
-46 29 -22 2 14 -15 15 -23 6 -33 -9 -11 -8 -17 4 -27 21 -18 19 -57 -4 -70
-38 -20 -41 -13 -41 85 l0 95 -70 0 -70 0 0 -105z m115 50 c0 -28 -3 -30 -42
-33 l-43 -3 0 36 0 36 43 -3 c39 -3 42 -5 42 -33z"/>
</g>
</svg>
