<?xml version="1.0" standalone="no"?>
<!DOCTYPE svg PUBLIC "-//W3C//DTD SVG 20010904//EN"
 "http://www.w3.org/TR/2001/REC-SVG-20010904/DTD/svg10.dtd">
<svg version="1.0" xmlns="http://www.w3.org/2000/svg"
 width="24.000000pt" height="24.000000pt" viewBox="0 0 24.000000 24.000000"
 preserveAspectRatio="xMidYMid meet">

<g transform="translate(0.000000,24.000000) scale(0.100000,-0.100000)"
fill="#000000" stroke="none">
<path d="M12 168 c3 -60 4 -63 31 -66 25 -3 27 -7 27 -48 0 -32 4 -44 15 -44
11 0 15 12 15 45 0 38 3 45 20 45 17 0 20 -7 20 -45 0 -33 4 -45 15 -45 11 0
15 12 15 45 0 33 4 45 15 45 11 0 15 -12 15 -45 0 -33 4 -45 15 -45 12 0 15
19 15 110 0 91 -3 110 -15 110 -11 0 -15 -12 -15 -45 0 -33 -4 -45 -15 -45
-11 0 -15 12 -15 45 0 33 -4 45 -15 45 -11 0 -15 -12 -15 -45 0 -38 -3 -45
-20 -45 -17 0 -20 7 -20 45 0 33 -4 45 -15 45 -11 0 -15 -12 -15 -45 0 -33 -4
-45 -15 -45 -11 0 -15 12 -15 45 0 34 -4 45 -15 45 -13 0 -15 -11 -13 -62z"/>
</g>
</svg>
